<svg width="40" height="35" viewBox="0 0 40 35" fill="none" xmlns="http://www.w3.org/2000/svg">
<path fill-rule="evenodd" clip-rule="evenodd" d="M4.80001 24.2734H1.68878C1.47588 24.2734 1.2948 24.4282 1.2616 24.6383L0.00326376 32.6164C-0.0217468 32.7739 0.10017 32.9158 0.259855 32.9158H1.74519C1.95809 32.9158 2.13916 32.761 2.17236 32.5505L2.51175 30.3987C2.54449 30.188 2.72601 30.0335 2.93847 30.0335H3.92338C5.97286 30.0335 7.1556 29.0417 7.46465 27.0764C7.60381 26.2166 7.47054 25.541 7.06781 25.0678C6.6257 24.5484 5.84128 24.2734 4.80001 24.2734ZM5.15896 27.1873C4.98885 28.3038 4.13584 28.3038 3.31106 28.3038H2.84157L3.17094 26.2187C3.19049 26.0928 3.29967 26 3.42706 26H3.64224C4.20407 26 4.73412 26 5.00801 26.3202C5.17117 26.5113 5.22128 26.7951 5.15896 27.1873ZM14.1002 27.1515H12.6103C12.4834 27.1515 12.3737 27.2444 12.3541 27.3705L12.2882 27.7871L12.184 27.6362C11.8615 27.168 11.1423 27.0115 10.4244 27.0115C8.77792 27.0115 7.37181 28.2585 7.09791 30.0078C6.9556 30.8802 7.15791 31.7145 7.65286 32.2964C8.10697 32.8314 8.75665 33.0543 9.5295 33.0543C10.856 33.0543 11.5918 32.2012 11.5918 32.2012L11.5253 32.6154C11.5002 32.7737 11.6221 32.9156 11.7809 32.9156H13.123C13.3365 32.9156 13.5165 32.7608 13.5501 32.5503L14.3554 27.4509C14.3809 27.2941 14.2594 27.1515 14.1002 27.1515ZM12.0234 30.0513C11.8796 30.9025 11.204 31.4739 10.3426 31.4739C9.90992 31.4739 9.56402 31.3351 9.34213 31.0722C9.12192 30.8111 9.03813 30.4393 9.10823 30.0255C9.24255 29.1814 9.9295 28.5916 10.7779 28.5916C11.2009 28.5916 11.5449 28.732 11.7714 28.9972C11.9983 29.2652 12.0885 29.6391 12.0234 30.0513ZM20.5379 27.1513H22.0352C22.2449 27.1513 22.3672 27.3865 22.2481 27.5585L17.2685 34.7463C17.1878 34.8627 17.055 34.932 16.9131 34.932H15.4177C15.2072 34.932 15.0842 34.6949 15.2061 34.5225L16.7567 32.3339L15.1076 27.4943C15.0506 27.3261 15.1748 27.1513 15.3537 27.1513H16.8249C17.016 27.1513 17.1847 27.2768 17.2398 27.4598L18.115 30.3827L20.1801 27.341C20.2609 27.2223 20.3952 27.1513 20.5379 27.1513Z" fill="#253B80"/>
<path fill-rule="evenodd" clip-rule="evenodd" d="M36.7709 32.6159L38.0478 24.4918C38.0673 24.3657 38.1766 24.2729 38.3035 24.2725H39.741C39.8998 24.2725 40.0217 24.4148 39.9966 24.5723L38.7374 32.55C38.7046 32.7605 38.5235 32.9152 38.3103 32.9152H37.0265C36.8677 32.9152 36.7459 32.7733 36.7709 32.6159ZM26.9921 24.2729H23.8803C23.6679 24.2729 23.4869 24.4276 23.4536 24.6377L22.1953 32.6159C22.1702 32.7733 22.2921 32.9152 22.4511 32.9152H24.0477C24.1961 32.9152 24.3231 32.807 24.3462 32.6596L24.7033 30.3982C24.7361 30.1874 24.9176 30.0329 25.13 30.0329H26.1145C28.1644 30.0329 29.3469 29.0411 29.6562 27.0758C29.7957 26.216 29.6616 25.5405 29.2591 25.0672C28.8172 24.5478 28.0334 24.2729 26.9921 24.2729ZM27.3511 27.1868C27.1814 28.3032 26.3284 28.3032 25.5031 28.3032H25.034L25.3639 26.2182C25.3835 26.0923 25.4917 25.9994 25.6195 25.9994H25.8347C26.3961 25.9994 26.9267 25.9994 27.2004 26.3196C27.3637 26.5108 27.4134 26.7946 27.3511 27.1868ZM36.2915 27.151H34.8027C34.6747 27.151 34.5661 27.2438 34.5469 27.3699L34.481 27.7866L34.3764 27.6356C34.0538 27.1674 33.3351 27.011 32.6172 27.011C30.9707 27.011 29.565 28.2579 29.2911 30.0072C29.1492 30.8796 29.3507 31.714 29.8456 32.2958C30.3006 32.8308 30.9494 33.0537 31.7223 33.0537C33.0488 33.0537 33.7844 32.2007 33.7844 32.2007L33.7181 32.6148C33.693 32.7731 33.8149 32.915 33.9747 32.915H35.3162C35.5286 32.915 35.7096 32.7603 35.7429 32.5497L36.5486 27.4504C36.5732 27.2935 36.4513 27.151 36.2915 27.151ZM34.2149 30.0508C34.072 30.9019 33.3955 31.4733 32.5338 31.4733C32.1021 31.4733 31.7555 31.3346 31.5334 31.0716C31.3132 30.8106 31.2305 30.4388 31.2997 30.0249C31.4347 29.1809 32.1208 28.591 32.9692 28.591C33.3924 28.591 33.7362 28.7314 33.9629 28.9967C34.1907 29.2647 34.2808 29.6386 34.2149 30.0508Z" fill="#179BD7"/>
<path d="M16.314 21.4186L16.6966 18.9892L15.8446 18.9694H11.7761L14.6035 1.0417C14.6121 0.987577 14.6408 0.937114 14.6824 0.901282C14.7241 0.865451 14.7776 0.845703 14.8332 0.845703H21.6932C23.9707 0.845703 25.5423 1.31962 26.3629 2.25501C26.7475 2.69383 26.9926 3.15238 27.1111 3.65701C27.2353 4.18653 27.2376 4.81914 27.1162 5.59072L27.1073 5.64704V6.14142L27.4922 6.35938C27.8162 6.53123 28.0734 6.72797 28.2709 6.95323C28.6002 7.32841 28.813 7.80526 28.9029 8.37058C28.9957 8.95202 28.965 9.64387 28.813 10.4272C28.6374 11.3282 28.3536 12.1129 27.9705 12.7551C27.6178 13.3467 27.1688 13.8374 26.6357 14.2178C26.1267 14.579 25.5218 14.8534 24.838 15.0289C24.1753 15.2014 23.4199 15.2885 22.5913 15.2885H22.0574C21.6757 15.2885 21.3048 15.426 21.0138 15.6725C20.722 15.9241 20.5288 16.2677 20.4696 16.6437L20.4294 16.8624L19.7536 21.1443L19.7229 21.3016C19.7149 21.3515 19.701 21.3763 19.6806 21.3932C19.6622 21.4083 19.6359 21.4186 19.6102 21.4186H16.314Z" fill="#253B80"/>
<path d="M27.8564 5.70508C27.836 5.83598 27.8126 5.96982 27.7863 6.10731C26.8814 10.7521 23.7865 12.3567 19.8334 12.3567H17.8208C17.3374 12.3567 16.93 12.7078 16.8547 13.1846L15.8241 19.7201L15.5323 21.5725C15.4833 21.8855 15.7248 22.1679 16.0406 22.1679H19.6105C20.0332 22.1679 20.3922 21.8607 20.4587 21.4439L20.4938 21.2624L21.166 16.9971L21.2092 16.7632C21.2749 16.3449 21.6347 16.0377 22.0574 16.0377H22.5913C26.0498 16.0377 28.7574 14.6335 29.5488 10.57C29.8793 8.87256 29.7082 7.45521 28.8334 6.45836C28.5688 6.15777 28.2404 5.90838 27.8564 5.70508Z" fill="#179BD7"/>
<path d="M26.9096 5.32765C26.7715 5.28741 26.6288 5.25085 26.4825 5.21794C26.3355 5.18577 26.1848 5.15725 26.0298 5.13238C25.4871 5.04461 24.8926 5.00293 24.2555 5.00293H18.8787C18.7463 5.00293 18.6206 5.03291 18.5079 5.08703C18.2599 5.20624 18.0757 5.44102 18.0311 5.72843L16.8871 12.9732L16.8542 13.1846C16.9296 12.7077 17.337 12.3567 17.8204 12.3567H19.833C23.7861 12.3567 26.8812 10.7514 27.7859 6.10727C27.8128 5.96977 27.8355 5.83594 27.856 5.70504C27.6271 5.58363 27.3791 5.47977 27.1122 5.39127C27.0465 5.36933 26.9785 5.34813 26.9096 5.32765Z" fill="#222D65"/>
<path d="M18.0311 5.72834C18.0758 5.44091 18.2602 5.20615 18.508 5.08767C18.6215 5.03354 18.7465 5.00356 18.8787 5.00356H24.2558C24.8928 5.00356 25.4874 5.04525 26.0299 5.13302C26.185 5.15788 26.3358 5.18641 26.4827 5.21857C26.629 5.2515 26.7716 5.28807 26.9099 5.32828C26.9785 5.34876 27.0465 5.36996 27.1131 5.39119C27.38 5.47967 27.628 5.58426 27.8568 5.70493C28.1261 3.98845 27.8547 2.81975 26.9267 1.76147C25.9036 0.596436 24.0568 0.0976562 21.6939 0.0976562H14.8337C14.3509 0.0976562 13.9393 0.448689 13.8646 0.926269L11.0073 19.0382C10.9509 19.3965 11.2273 19.7199 11.5886 19.7199H15.824L16.8873 12.9731L18.0311 5.72834Z" fill="#253B80"/>
</svg>
